<svg width="800" height="470" viewBox="0 0 800 470" xmlns="http://www.w3.org/2000/svg" font-family="ui-sans-serif, -apple-system, 'Helvetica Neue', Arial, sans-serif">
  <!-- Annotated EP-2350 "ting" with tingle's default controls.
       Proportions from TE's product photo: green squeeze handle on the
       left; right edge, top to bottom: orange, green, white buttons;
       ribbed cream top with round grille + LED column; smooth lower
       plate; coiled cable out the bottom. -->

  <!-- ===== device ===== -->
  <!-- green squeeze handle (left) -->
  <rect x="200" y="92" width="52" height="236" rx="12" fill="#1E6B47"/>

  <!-- ribbed cream top section -->
  <rect x="250" y="42" width="204" height="196" fill="#EDE6D5"/>
  <g stroke="#F7F3E8" stroke-width="3">
    <line x1="250" y1="56"  x2="454" y2="56"/>
    <line x1="250" y1="76"  x2="454" y2="76"/>
    <line x1="250" y1="96"  x2="454" y2="96"/>
    <line x1="250" y1="116" x2="454" y2="116"/>
    <line x1="250" y1="136" x2="454" y2="136"/>
    <line x1="250" y1="156" x2="454" y2="156"/>
    <line x1="250" y1="176" x2="454" y2="176"/>
    <line x1="250" y1="196" x2="454" y2="196"/>
    <line x1="250" y1="216" x2="454" y2="216"/>
  </g>
  <!-- grille -->
  <circle cx="352" cy="140" r="60" fill="#211F1C"/>
  <g stroke="#3A3733" stroke-width="4">
    <line x1="300" y1="112" x2="404" y2="112"/>
    <line x1="294" y1="130" x2="410" y2="130"/>
    <line x1="294" y1="148" x2="410" y2="148"/>
    <line x1="300" y1="166" x2="404" y2="166"/>
    <line x1="312" y1="184" x2="392" y2="184"/>
  </g>
  <!-- LED column -->
  <g fill="#8F887A">
    <circle cx="434" cy="68" r="3"/>
    <circle cx="434" cy="88" r="3"/>
    <circle cx="434" cy="108" r="3"/>
    <circle cx="434" cy="128" r="3"/>
    <circle cx="434" cy="158" r="3"/>
    <circle cx="434" cy="178" r="3"/>
    <circle cx="434" cy="198" r="3"/>
    <circle cx="434" cy="216" r="3"/>
  </g>

  <!-- smooth lower plate -->
  <rect x="250" y="238" width="204" height="144" fill="#F4F3F0"/>
  <rect x="250" y="238" width="204" height="144" fill="none" stroke="#DDDAD3" stroke-width="2"/>
  <g fill="none" stroke="#D8D5CE" stroke-width="2">
    <circle cx="266" cy="254" r="6"/>
    <circle cx="438" cy="254" r="6"/>
    <circle cx="266" cy="366" r="6"/>
    <circle cx="438" cy="366" r="6"/>
  </g>

  <!-- buttons, top to bottom: orange / green / white -->
  <rect x="452" y="80"  width="24" height="36" rx="6" fill="#FF4E00"/>
  <rect x="452" y="176" width="24" height="36" rx="6" fill="#1E6B47"/>
  <rect x="452" y="286" width="24" height="36" rx="6" fill="#FAFAF8" stroke="#C9C6BF" stroke-width="2"/>

  <!-- cable: green lead under the orange strain relief -->
  <path d="M 305 384 C 305 414 305 434 305 452" fill="none" stroke="#1E6B47" stroke-width="5" stroke-linecap="round"/>
  <g fill="#FF4E00">
    <rect x="293" y="382" width="24" height="7" rx="3.5"/>
    <rect x="295" y="392" width="20" height="7" rx="3.5"/>
    <rect x="297" y="402" width="16" height="7" rx="3.5"/>
  </g>

  <!-- ===== annotations ===== -->
  <g stroke="#8A8A8A" stroke-width="1.5" fill="none">
    <path d="M 160 76 L 226 118"/>
    <path d="M 480 98  L 542 98"/>
    <path d="M 480 194 L 542 194"/>
    <path d="M 480 304 L 542 304"/>
  </g>
  <g fill="#8A8A8A">
    <circle cx="226" cy="118" r="3"/>
    <circle cx="480" cy="98" r="3"/>
    <circle cx="480" cy="194" r="3"/>
    <circle cx="480" cy="304" r="3"/>
  </g>

  <g>
    <text x="14" y="34" font-size="17" font-weight="700" fill="#1E6B47">squeeze &amp; talk</text>
    <text x="14" y="54" font-size="13" fill="#8A8A8A">words land live in the focused app;</text>
    <text x="14" y="70" font-size="13" fill="#8A8A8A">release to finish the take</text>
  </g>

  <g>
    <text x="550" y="92"  font-size="17" font-weight="700" fill="#FF4E00">send</text>
    <text x="550" y="110" font-size="13" fill="#8A8A8A">presses enter — ship it to your agent</text>

    <text x="550" y="188" font-size="17" font-weight="700" fill="#1E6B47">erase last take</text>
    <text x="550" y="206" font-size="13" fill="#8A8A8A">scrap what you just said; tap again</text>
    <text x="550" y="222" font-size="13" fill="#8A8A8A">for earlier takes</text>

    <text x="550" y="298" font-size="17" font-weight="700" fill="#8A8A8A">summon your agent</text>
    <text x="550" y="316" font-size="13" fill="#8A8A8A">brings Claude / Codex / Cursor /</text>
    <text x="550" y="332" font-size="13" fill="#8A8A8A">your terminal to the front</text>
  </g>
</svg>
