<svg xmlns="http://www.w3.org/2000/svg" viewBox="0 0 880 300" font-family="ui-monospace, SFMono-Regular, Menlo, monospace">
  <rect width="880" height="300" rx="16" fill="#f6f6f4"/>
  <rect x="0.5" y="0.5" width="879" height="299" rx="16" fill="none" stroke="#e2e2dd"/>

  <!-- Step 1: the ting + squeeze. Real geometry: green handle on the
       LEFT; ribbed cream top with the round grille CENTERED; smooth white
       lower plate; orange/green/white buttons top-to-bottom on the RIGHT
       edge; cable exits bottom, left of center. -->
  <g transform="translate(60,64)">
    <!-- green squeeze handle -->
    <rect x="-4" y="34" width="24" height="82" rx="8" fill="#1E6B47" stroke="#111" stroke-width="2.5"/>
    <!-- cable (under the strain relief), left of center -->
    <path d="M 42 160 C 42 168 42 174 42 182" fill="none" stroke="#1E6B47" stroke-width="3.5" stroke-linecap="round"/>
    <g fill="#ff6a3d">
      <rect x="36" y="158" width="12" height="4" rx="2"/>
      <rect x="37" y="164" width="10" height="4" rx="2"/>
    </g>
    <!-- ribbed cream top -->
    <rect x="20" y="10" width="80" height="78" fill="#EDE6D5" stroke="#111" stroke-width="2.5"/>
    <g stroke="#F7F3E8" stroke-width="2">
      <line x1="22" y1="24" x2="98" y2="24"/>
      <line x1="22" y1="38" x2="98" y2="38"/>
      <line x1="22" y1="52" x2="98" y2="52"/>
      <line x1="22" y1="66" x2="98" y2="66"/>
      <line x1="22" y1="80" x2="98" y2="80"/>
    </g>
    <!-- grille, centered on the body -->
    <circle cx="60" cy="49" r="24" fill="#211F1C"/>
    <g stroke="#3A3733" stroke-width="2">
      <line x1="40" y1="41" x2="80" y2="41"/>
      <line x1="37" y1="49" x2="83" y2="49"/>
      <line x1="40" y1="57" x2="80" y2="57"/>
    </g>
    <!-- smooth lower plate -->
    <rect x="20" y="88" width="80" height="72" fill="#fff" stroke="#111" stroke-width="2.5"/>
    <!-- buttons on the right edge: orange / green / white -->
    <rect x="98" y="20" width="11" height="17" rx="4" fill="#FF4E00" stroke="#111" stroke-width="2"/>
    <rect x="98" y="58" width="11" height="17" rx="4" fill="#1E6B47" stroke="#111" stroke-width="2"/>
    <rect x="98" y="106" width="11" height="17" rx="4" fill="#fff" stroke="#111" stroke-width="2"/>
    <text x="55" y="200" text-anchor="middle" font-size="15" fill="#111" font-weight="700">squeeze &amp; talk</text>
  </g>

  <!-- arrow -->
  <g stroke="#bdbdb5" stroke-width="2.5" fill="none">
    <path d="M205 145 h70" marker-end="url(#a)"/>
  </g>

  <!-- Step 2: your words -->
  <g transform="translate(300,95)">
    <rect x="0" y="0" width="230" height="110" rx="12" fill="#fff" stroke="#111" stroke-width="2"/>
    <path d="M24 110 l16 22 l4 -22 z" fill="#fff" stroke="#111" stroke-width="2"/>
    <text x="18" y="34" font-size="14.5" fill="#111">"add error handling</text>
    <text x="18" y="58" font-size="14.5" fill="#111"> to the URDF parser</text>
    <text x="18" y="82" font-size="14.5" fill="#111"> in the monorepo"</text>
  </g>

  <!-- arrow -->
  <g stroke="#bdbdb5" stroke-width="2.5" fill="none">
    <path d="M560 145 h60" marker-end="url(#a)"/>
  </g>

  <!-- Step 3: lands in your agent -->
  <g transform="translate(640,70)">
    <rect x="0" y="0" width="180" height="160" rx="10" fill="#1e1e1e"/>
    <circle cx="16" cy="16" r="4" fill="#ff5f56"/>
    <circle cx="30" cy="16" r="4" fill="#ffbd2e"/>
    <circle cx="44" cy="16" r="4" fill="#27c93f"/>
    <text x="16" y="52" font-size="12" fill="#8ad6a0">&gt; claude</text>
    <text x="16" y="78" font-size="12" fill="#e6e6e6">add error handling</text>
    <text x="16" y="96" font-size="12" fill="#e6e6e6">to the URDF parser</text>
    <text x="16" y="114" font-size="12" fill="#e6e6e6">in the monorepo<tspan fill="#ff6a3d">_</tspan></text>
    <text x="90" y="150" text-anchor="middle" font-size="13" fill="#9a9a9a" font-weight="700">no keyboard</text>
  </g>

  <defs>
    <marker id="a" markerWidth="9" markerHeight="9" refX="7" refY="4.5" orient="auto">
      <path d="M0 0 L9 4.5 L0 9 z" fill="#bdbdb5"/>
    </marker>
  </defs>
</svg>
